<svg id="Capa_1" enable-background="new 0 0 510 510" height="512" viewBox="0 0 510 510" width="512" xmlns="http://www.w3.org/2000/svg" xmlns:xlink="http://www.w3.org/1999/xlink"><linearGradient id="lg1"><stop offset="0" stop-color="#f8f6f7"/><stop offset=".1788" stop-color="#f8f6f7"/><stop offset="1" stop-color="#e7e6f5"/></linearGradient><linearGradient id="SVGID_1_" gradientUnits="userSpaceOnUse" x1="-102" x2="376" xlink:href="#lg1" y1="245" y2="245"/><linearGradient id="lg2"><stop offset="0" stop-color="#f8f6f7"/><stop offset="1" stop-color="#d1ceeb"/></linearGradient><linearGradient id="SVGID_2_" gradientUnits="userSpaceOnUse" x1="135" x2="484.07" xlink:href="#lg2" y1="245" y2="245"/><linearGradient id="lg3"><stop offset="0" stop-color="#537983"/><stop offset=".593" stop-color="#554e56"/><stop offset="1" stop-color="#433f43"/></linearGradient><linearGradient id="SVGID_3_" gradientTransform="matrix(1 0 0 -1 0 429.759)" gradientUnits="userSpaceOnUse" x1="149.433" x2="210.219" xlink:href="#lg3" y1="196.725" y2="196.725"/><linearGradient id="SVGID_4_" gradientTransform="matrix(1 0 0 -1 0 429.759)" gradientUnits="userSpaceOnUse" x1="255.182" x2="351.265" xlink:href="#lg3" y1="196.725" y2="196.725"/><linearGradient id="lg4"><stop offset="0" stop-color="#fbc56d"/><stop offset=".593" stop-color="#dc8758"/><stop offset="1" stop-color="#9e5528"/></linearGradient><linearGradient id="SVGID_5_" gradientUnits="userSpaceOnUse" x1="-4.758" x2="257.915" xlink:href="#lg4" y1="122.26" y2="122.26"/><linearGradient id="SVGID_6_" gradientUnits="userSpaceOnUse" x1="-87.839" x2="230.559" xlink:href="#lg4" y1="122.259" y2="122.259"/><linearGradient id="SVGID_7_" gradientUnits="userSpaceOnUse" x1="315.988" x2="562.265" xlink:href="#lg4" y1="122.26" y2="122.26"/><linearGradient id="SVGID_8_" gradientUnits="userSpaceOnUse" x1="216.646" x2="551.734" xlink:href="#lg4" y1="122.26" y2="122.26"/><linearGradient id="SVGID_9_" gradientUnits="userSpaceOnUse" x1="63.866" x2="446.134" xlink:href="#lg1" y1="404.608" y2="404.608"/><linearGradient id="SVGID_10_" gradientUnits="userSpaceOnUse" x1="99" x2="337.38" xlink:href="#lg2" y1="357.715" y2="357.715"/><linearGradient id="SVGID_11_" gradientUnits="userSpaceOnUse" x1="224.98" x2="546.752" xlink:href="#lg2" y1="404.608" y2="404.608"/><linearGradient id="SVGID_12_" gradientUnits="userSpaceOnUse" x1="194.709" x2="347.349" xlink:href="#lg3" y1="332.704" y2="332.704"/><linearGradient id="SVGID_13_" gradientUnits="userSpaceOnUse" x1="108.651" x2="273.813" xlink:href="#lg3" y1="332.698" y2="332.698"/><linearGradient id="SVGID_14_" gradientUnits="userSpaceOnUse" x1="156.76" x2="255" xlink:href="#lg2" y1="476.405" y2="476.405"/><linearGradient id="SVGID_15_" gradientUnits="userSpaceOnUse" x1="55" x2="418.16" xlink:href="#lg2" y1="382.89" y2="382.89"/><linearGradient id="SVGID_16_" gradientUnits="userSpaceOnUse" x1="55" x2="418.16" xlink:href="#lg2" y1="425.3" y2="425.3"/><linearGradient id="SVGID_17_" gradientUnits="userSpaceOnUse" x1="55" x2="418.16" xlink:href="#lg2" y1="430" y2="430"/><g><path d="m273.164 457.099h-36.327c-79.52 0-146.68-59.03-156.885-137.892l-17.09-132.068c-10.584-81.778 53.103-154.238 135.563-154.238h113.151c82.459 0 146.147 72.46 135.564 154.237l-17.09 132.068c-10.206 78.863-77.367 137.893-156.886 137.893z" fill="url(#SVGID_1_)"/><path d="m447.14 187.14-10.5 81.17-6.59 50.904c-10.211 78.86-77.372 137.886-156.89 137.886h-36.32c-.61 0-1.23 0-1.84-.01 78.71-.91 144.9-59.64 155.03-137.88l2.283-17.643c3.463-26.762-6.379-53.43-26.128-71.819-26.918-25.065-45.421-59.272-50.455-98.167l-8.34-64.5c-.066-.508-.121-1.015-.167-1.52-1.626-18.202-16.308-32.516-34.582-32.656-.36-.003-.721-.004-1.081-.004h40.02c3.18 0 6.33.11 9.45.32 77.8 5.279 136.28 75.289 126.11 153.919z" fill="url(#SVGID_2_)"/><g><path d="m181.499 214.879c-15.635 0-28.354 12.719-28.354 28.353 0 4.393 3.561 7.955 7.955 7.955 4.393 0 7.954-3.561 7.954-7.955 0-6.862 5.583-12.444 12.445-12.444s12.444 5.583 12.444 12.444c0 4.393 3.561 7.955 7.955 7.955 4.393 0 7.955-3.561 7.955-7.955 0-15.633-12.72-28.353-28.354-28.353z" fill="url(#SVGID_3_)"/><path d="m328.501 214.879c-15.635 0-28.354 12.719-28.354 28.353 0 4.393 3.561 7.955 7.954 7.955s7.955-3.561 7.955-7.955c0-6.862 5.583-12.444 12.445-12.444s12.444 5.583 12.444 12.444c0 4.393 3.561 7.955 7.954 7.955s7.955-3.561 7.955-7.955c.001-15.633-12.719-28.353-28.353-28.353z" fill="url(#SVGID_4_)"/></g><path d="m140.624 0c-84.817 0-150.324 74.531-139.439 158.646l7.592 58.667c2.393 18.491 20.372 30.775 38.466 26.273 63.695-15.849 113.252-69.327 122.012-137.018l8.345-64.498c2.887-22.306-14.484-42.07-36.976-42.07z" fill="url(#SVGID_5_)"/><path d="m140.624 0c-9.105 0-17.984.864-26.573 2.502 15.487 5.988 25.805 21.984 23.53 39.568l-8.346 64.498c-8.062 62.3-50.684 112.56-107.079 132.526 7.051 4.803 16.054 6.74 25.087 4.492 63.695-15.849 113.252-69.327 122.012-137.018l8.346-64.498c2.886-22.306-14.485-42.07-36.977-42.07z" fill="url(#SVGID_6_)"/><path d="m369.376 0c84.817 0 150.324 74.531 139.439 158.646l-7.592 58.667c-2.393 18.491-20.372 30.775-38.466 26.273-63.695-15.849-113.252-69.327-122.012-137.018l-8.345-64.498c-2.887-22.306 14.484-42.07 36.976-42.07z" fill="url(#SVGID_7_)"/><path d="m369.376 0c-4.761 0-9.288.894-13.447 2.502 71.424 13.615 122.582 81.058 112.866 156.144l-7.592 58.667c-1.198 9.26-6.306 16.963-13.378 21.781 4.879 1.727 9.861 3.23 14.933 4.492 18.094 4.502 36.073-7.782 38.466-26.273l7.592-58.667c10.884-84.115-54.623-158.646-139.44-158.646z" fill="url(#SVGID_8_)"/><path d="m340.742 299.217c-35.344 0-136.14 0-171.485 0-58.206 0-105.392 47.186-105.392 105.392s47.186 105.391 105.393 105.391c35.345 0 66.623-17.401 85.742-44.1 19.12 26.7 50.398 44.1 85.742 44.1 58.206 0 105.392-47.185 105.392-105.392s-47.185-105.391-105.392-105.391z" fill="url(#SVGID_9_)"/><path d="m250.341 304.326h-40.704c-31.757 0-51.605 34.377-35.726 61.88l10.844 18.783c20.104 34.821 70.364 34.821 90.468 0l10.844-18.783c15.878-27.503-3.969-61.88-35.726-61.88z" fill="url(#SVGID_10_)"/><path d="m340.742 299.217c-9.476 0-23.658 0-40.02 0 58.206 0 105.392 47.186 105.392 105.392 0 51.364-36.746 94.137-85.382 103.486 6.48 1.246 13.168 1.905 20.011 1.905 58.206 0 105.392-47.185 105.392-105.392s-47.186-105.391-105.393-105.391z" fill="url(#SVGID_11_)"/><path d="m275.352 279.315h-40.704c-31.757 0-51.605 34.377-35.726 61.88l10.844 18.783c20.104 34.821 70.364 34.821 90.468 0l10.844-18.783c15.878-27.503-3.969-61.88-35.726-61.88z" fill="url(#SVGID_12_)"/><path d="m275.352 279.315h-25.011c31.757 0 51.605 34.377 35.727 61.88l-10.844 18.783c-7.65 13.25-19.669 21.443-32.728 24.61 21.261 5.155 45.285-3.038 57.74-24.61l10.844-18.783c15.876-27.503-3.971-61.88-35.728-61.88z" fill="url(#SVGID_13_)"/><path d="m255 465.9c-19.12 26.7-50.4 44.1-85.74 44.1-4.23 0-8.4-.25-12.5-.74 39.25-4.64 71.89-30.85 85.74-66.45 3.2 8.25 7.42 16 12.5 23.09z" fill="url(#SVGID_14_)"/><g><g><circle cx="357.584" cy="382.89" fill="url(#SVGID_15_)" r="8"/><path d="m336.061 409.489c-8.732 0-15.811 7.079-15.811 15.811s7.079 15.811 15.811 15.811 15.811-7.079 15.811-15.811-7.078-15.811-15.811-15.811z" fill="url(#SVGID_16_)"/><path d="m384.789 418.89c-6.136 0-11.11 4.974-11.11 11.111 0 6.136 4.974 11.11 11.11 11.11s11.111-4.975 11.111-11.111-4.975-11.11-11.111-11.11z" fill="url(#SVGID_17_)"/></g><g><circle cx="151.434" cy="382.89" fill="url(#SVGID_15_)" r="8"/><path d="m129.911 409.489c-8.732 0-15.811 7.079-15.811 15.811s7.079 15.811 15.811 15.811 15.811-7.079 15.811-15.811-7.079-15.811-15.811-15.811z" fill="url(#SVGID_16_)"/><path d="m178.639 418.89c-6.136 0-11.11 4.974-11.11 11.111 0 6.136 4.974 11.11 11.11 11.11s11.111-4.974 11.111-11.11c-.001-6.137-4.975-11.111-11.111-11.111z" fill="url(#SVGID_17_)"/></g></g></g></svg>