<svg xmlns="http://www.w3.org/2000/svg" viewBox="0 0 512 512"><path d="M202.1 116.7c-18.6 0-33.7 15.1-33.7 33.7 0 4.4 3.6 8 8 8 4.4 0 8-3.6 8-8 0-9.8 7.9-17.7 17.7-17.7 9.8 0 17.7 7.9 17.7 17.7 0 4.4 3.6 8 8 8s8-3.6 8-8C235.9 131.9 220.7 116.7 202.1 116.7z"/><path d="M309.9 116.7c-18.6 0-33.7 15.1-33.7 33.7 0 4.4 3.6 8 8 8 4.4 0 8-3.6 8-8 0-9.8 7.9-17.7 17.7-17.7 9.8 0 17.7 7.9 17.7 17.7 0 4.4 3.6 8 8 8 4.4 0 8-3.6 8-8C343.6 131.9 328.5 116.7 309.9 116.7z"/><path d="M256 171.9c-18.6 0-33.7 15.1-33.7 33.7 0 4.4 3.6 8 8 8s8-3.6 8-8c0-9.8 7.9-17.7 17.7-17.7 9.8 0 17.7 7.9 17.7 17.7 0 4.4 3.6 8 8 8 4.4 0 8-3.6 8-8C289.7 187 274.6 171.9 256 171.9z"/><path d="M134 171.9c-18.6 0-33.7 15.1-33.7 33.7 0 4.4 3.6 8 8 8s8-3.6 8-8c0-9.8 7.9-17.7 17.7-17.7 9.8 0 17.7 7.9 17.7 17.7 0 4.4 3.6 8 8 8 4.4 0 8-3.6 8-8C167.7 187 152.6 171.9 134 171.9z"/><path d="M378 171.9c-18.6 0-33.7 15.1-33.7 33.7 0 4.4 3.6 8 8 8 4.4 0 8-3.6 8-8 0-9.8 7.9-17.7 17.7-17.7 9.8 0 17.7 7.9 17.7 17.7 0 4.4 3.6 8 8 8 4.4 0 8-3.6 8-8C411.8 187 396.6 171.9 378 171.9z"/><path d="M297 392.3c-3.9-17.6-20.7-43-40.9-43h-0.3v0c-20.2 0-37 25.4-40.9 43 -3.7 16.8 4.4 22.6 8.1 24.3 6.8 3.2 14.8 3.8 23.1 1.7 3.2-0.8 6.4-1.2 9.7-1.2h0.3c3.3 0 6.5 0.4 9.7 1.2 3.3 0.8 6.5 1.3 9.7 1.3 0 0 0 0 0 0 4.8 0 9.3-1 13.4-2.9C292.6 414.9 300.8 409.1 297 392.3zM281.7 402.2c-1.9 0.8-3.9 1.2-6.2 1.2 -1.8 0-3.7-0.3-5.7-0.8 -4.4-1.1-9-1.7-13.6-1.7h-0.3c-4.6 0-9.2 0.6-13.6 1.7 -4.5 1.1-8.6 1-12-0.5 -0.7-2.1 0-9.8 5.9-20.1 5.9-10.1 13.8-16.9 19.7-16.9h0.3c5.9 0 13.8 6.8 19.7 16.9C281.8 392.4 282.4 400.2 281.7 402.2z"/><path d="M252.3 306.7c-4.3-9.6-14-15.8-24.5-15.8 -3.8 0-7.5 0.8-11 2.4 -13.5 6.1-19.6 22-13.5 35.5 4.9 10.9 17.7 19.5 29.2 19.5h0c3.2 0 6.1-0.6 8.9-1.9C255 340.2 258.4 320.3 252.3 306.7zM234.7 331.7c-0.6 0.3-1.4 0.4-2.3 0.4h0c-5.1 0-12.2-4.9-14.5-10 -1.2-2.6-1.3-5.6-0.3-8.3 1-2.7 3-4.9 5.7-6 1.4-0.6 2.9-1 4.4-1 4.3 0 8.1 2.5 9.9 6.4C240.6 319.8 239 329.8 234.7 331.7z"/><path d="M206.8 338c-4-2.6-8.6-4-13.4-4 -8.1 0-15.7 4-20.1 10.8 -7.4 11.1-4.3 26.1 6.8 33.5 5.2 3.4 12.5 5.5 19.6 5.5h0c8.7 0 15.6-3.1 19.3-8.7C227 362.9 217 344.7 206.8 338zM205.6 366.1c-0.4 0.6-2.4 1.6-5.9 1.6h0c-3.8 0-8.2-1.1-10.7-2.8 -3.7-2.5-4.8-7.5-2.3-11.3 1.5-2.3 4-3.6 6.8-3.6 1.6 0 3.1 0.5 4.5 1.4C203.3 354.9 207.1 363.9 205.6 366.1z"/><path d="M295.2 293.2c-3.5-1.6-7.2-2.4-11-2.4 -10.6 0-20.2 6.2-24.5 15.8 -2.8 6.2-3.6 14.2-2.2 21.3 1.7 8.8 6.4 15.3 13.2 18.4 2.7 1.2 5.7 1.9 8.9 1.9 11.4 0 24.2-8.6 29.2-19.5C314.8 315.2 308.8 299.3 295.2 293.2zM294.1 322.1c-2.3 5.2-9.4 10-14.5 10 -0.9 0-1.6-0.1-2.3-0.4 -2.7-1.2-3.7-5.2-4.1-6.8 -0.8-3.9-0.3-8.4 1.1-11.7 1.7-3.9 5.6-6.4 9.9-6.4 1.5 0 3 0.3 4.4 1 2.6 1.2 4.7 3.3 5.7 6C295.4 316.6 295.3 319.5 294.1 322.1z"/><path d="M338.7 344.7c-4.5-6.8-12-10.8-20.1-10.8 -4.8 0-9.4 1.4-13.4 4 -5 3.3-9.7 9.1-12.5 15.5 -3.6 8.2-3.5 15.8 0.3 21.5 3.7 5.6 10.6 8.7 19.3 8.7 7.1 0 14.4-2 19.6-5.5C343 370.9 346 355.8 338.7 344.7zM323 364.9c-2.5 1.6-6.9 2.8-10.7 2.8 -3.6 0-5.5-1-5.9-1.6 -0.4-0.6-0.5-2.9 1-6.2 1.8-4 4.6-7.2 6.7-8.6 1.3-0.9 2.9-1.4 4.5-1.4 2.7 0 5.3 1.4 6.8 3.6C327.8 357.3 326.8 362.4 323 364.9z"/><path d="M510.3 329.6c-7.3-41.8-34.4-97.2-48.1-123.2 0.4-0.5 0.7-1.1 1.1-1.7 9-14.4 8.6-27.2 6.7-35.4 -3.9-16.6-17.8-29.1-32.4-29.1 -3.3 0-6.6 0.3-9.8 0.9 -7.5-19.7-26.6-33.3-48.2-33.3 -3 0-6.1 0.3-9 0.8 -6.7-21-26.4-36-49.2-36 -8.3 0-16.3 1.9-23.5 5.7 -9.6-13.4-25-21.4-41.9-21.4 -16.9 0-32.3 8-41.9 21.4 -7.2-3.7-15.2-5.7-23.5-5.7 -22.7 0-42.5 14.9-49.2 36 -3-0.5-6-0.8-9-0.8 -21.7 0-40.8 13.6-48.2 33.3 -3.2-0.6-6.5-0.9-9.8-0.9 -14.6 0-28.6 12.5-32.4 29.1 -1.9 8.2-2.3 20.9 6.7 35.4 0.3 0.6 0.7 1.1 1.1 1.6 -7.7 14.7-20.2 39.7-30.7 66.2 -1.6 4.1 0.4 8.8 4.5 10.4 1 0.4 2 0.6 3 0.6 3.2 0 6.2-1.9 7.5-5.1 9-22.8 19.6-44.4 27.1-59.1 0.9 0.8 1.8 1.7 2.8 2.5 0 0 0.1 0.1 0.1 0.1 0 0 0 0 0.1 0 0.7 0.6 1.4 1.1 2.1 1.7 0 0 0.1 0.1 0.1 0.1 0.1 0 0.1 0.1 0.2 0.1 1.7 1.4 3.5 2.7 5.4 4 0.1 0.1 0.3 0.2 0.4 0.3 0 0 0.1 0.1 0.1 0.1 0.6 0.4 1.3 0.9 1.9 1.3 0.2 0.1 0.4 0.2 0.5 0.4 0.1 0.1 0.3 0.2 0.4 0.3 0.6 0.4 1.2 0.8 1.8 1.2 0.2 0.1 0.3 0.2 0.5 0.3 0.3 0.2 0.7 0.4 1 0.6 0.5 0.3 0.9 0.6 1.4 0.8 0.1 0.1 0.3 0.2 0.4 0.2 0.4 0.2 0.7 0.4 1.1 0.6 0.5 0.3 1 0.6 1.5 0.9 0.1 0.1 0.2 0.1 0.3 0.2 0.6 0.3 1.2 0.7 1.9 1 0.3 0.2 0.7 0.4 1 0.5 0.1 0 0.1 0.1 0.2 0.1 1 0.5 1.9 1 2.9 1.5 0.1 0 0.1 0.1 0.2 0.1 0 0 0 0 0 0 0.9 0.5 1.9 1 3 1.5 26.9 13.3 66.4 22.7 111.3 26.9 0 0 0 0 0 0 10.9 1.2 21.7 2 32.2 2.4 22.5 0.9 45.2 0.2 67.6-2 0.9-0.1 1.8-0.2 2.6-0.2 1.9-0.2 3.8-0.3 5.7-0.5 1.8-0.2 3.6-0.4 5.3-0.6 0.8-0.1 1.5-0.2 2.3-0.3 2.5-0.3 5-0.6 7.5-0.9 0.8-0.1 1.5-0.3 2.2-0.6 0 0 0.1 0 0.1 0 0.2-0.1 0.3-0.1 0.4-0.2 0.1 0 0.2-0.1 0.3-0.1 0.2-0.1 0.3-0.2 0.5-0.3 0.1 0 0.1-0.1 0.2-0.1 0.2-0.1 0.3-0.2 0.5-0.4 0.1 0 0.1-0.1 0.2-0.1 0.1-0.1 0.2-0.2 0.4-0.4 0.1-0.1 0.1-0.1 0.2-0.2 0.1-0.1 0.2-0.2 0.3-0.4 0.1-0.1 0.1-0.1 0.2-0.2 0.1-0.1 0.2-0.3 0.3-0.5 0-0.1 0.1-0.1 0.1-0.2 0.1-0.2 0.2-0.4 0.3-0.6 0 0 0-0.1 0-0.1 0.2-0.4 0.4-0.9 0.5-1.4 0 0 0 0 0 0 0.3-1 0.4-2.1 0.2-3.2 0-0.2-0.1-0.4-0.1-0.5 0-0.1 0-0.2 0-0.3 0 0 0 0 0-0.1 -0.9-3.7-4.2-6.2-8-6.1 -0.3 0-0.5 0-0.8 0.1 0 0-0.1 0-0.1 0 -2.4 0.3-4.8 0.6-7.2 0.9 -0.7 0.1-1.5 0.2-2.2 0.3 -1.7 0.2-3.3 0.4-5 0.5 -1.9 0.2-3.9 0.4-5.9 0.6 -15.7 1.4-32 2.1-48.5 2.1 -16.4 0-32.5-0.7-47.9-2 -0.9-0.1-1.7-0.2-2.6-0.3 0 0-0.1 0-0.1 0 -42.5-3.9-79.6-12.6-104.4-24.6l-0.4-0.2c-0.4-0.2-0.8-0.4-1.1-0.6 -0.8-0.4-1.6-0.8-2.4-1.2 0 0 0 0 0 0 0 0-0.1 0-0.1-0.1 0 0-0.1 0-0.1 0 -0.1 0-0.2-0.1-0.3-0.1 -0.8-0.4-1.7-0.8-2.5-1.3 -0.7-0.4-1.4-0.8-2.1-1.1 -0.1-0.1-0.2-0.1-0.4-0.2 -25.2-13.8-37.8-31.6-33.9-48.3 2.4-10.3 10.6-16.7 16.8-16.7 4.3 0 8.5 0.8 12.5 2.3 2.2 0.8 4.7 0.6 6.7-0.5 2.1-1.2 3.5-3.1 4-5.5 3.2-16.6 17.9-28.7 34.9-28.7 4.2 0 8.3 0.7 12.2 2.2 2.3 0.8 4.8 0.6 6.9-0.7 2.1-1.3 3.5-3.4 3.8-5.8 2.3-17.6 17.5-30.9 35.2-30.9 7.8 0 15.2 2.5 21.4 7.2 1.9 1.4 4.4 2 6.7 1.4 2.3-0.6 4.3-2.1 5.3-4.3 6-12.3 18.3-20 32-20 13.7 0 26 7.7 32 20 1 2.2 3 3.7 5.3 4.3 2.3 0.6 4.8 0 6.7-1.4 6.2-4.7 13.6-7.2 21.4-7.2 17.8 0 32.9 13.3 35.2 30.9 0.3 2.4 1.7 4.6 3.8 5.8 2.1 1.3 4.6 1.5 6.9 0.7 3.9-1.4 8-2.2 12.2-2.2 17 0 31.6 12.1 34.9 28.7 0.5 2.3 1.9 4.3 4 5.5 2.1 1.2 4.5 1.3 6.7 0.5 4-1.5 8.2-2.3 12.5-2.3 6.2 0 14.4 6.4 16.8 16.7 4.1 17.8-10.5 36.9-39.2 51 -0.1 0-0.1 0.1-0.2 0.1 -4.8 2.5-10.1 4.9-16 7.2 -0.3 0.1-0.5 0.2-0.8 0.3 -13.4 5.1-29.5 9.5-47.5 13 -4.3 0.8-7.2 5-6.4 9.4 0.8 4.1 4.6 6.9 8.7 6.5 0.3 0 0.6-0.1 0.9-0.1 19.8-3.8 37.6-8.8 52.6-14.8 3.5-1.3 6.7-2.5 9.8-3.8 9.1-3.8 18-9.7 23.9-13.9 0 0 0.1-0.1 0.1-0.1 0 0 0.1-0.1 0.1-0.1l0.2-0.1c0.1-0.1 0.3-0.2 0.5-0.3 1.3-0.9 2.6-1.9 3.8-2.9 0.1-0.1 0.3-0.2 0.4-0.3 1.6-1.2 3.7-2.8 5.7-4.5 13.9 27.1 37.1 76.2 43.5 113 0 0.2 0.1 0.4 0.1 0.7 0.8 3.2 1.2 6.4 1.2 9.5 0 0.2 0 0.3 0 0.5 0 0.1 0 0.2 0 0.3 0 0.2 0 0.4 0 0.6 0 0.1 0 0.2 0 0.4 -1.2 23.8-26.4 47.5-69.3 65.2 -45.7 18.8-106.3 29.2-170.6 29.2 -64.1 0-124.6-10.3-170.2-29.1 -42.9-17.6-68.3-41.3-69.7-65 0-0.2 0-0.4-0.1-0.6 0-0.3-0.1-0.7 0-1 0-0.2 0-0.4 0-0.6 0-3 0.4-6.1 1.2-9.1 0.1-0.2 0.1-0.4 0.1-0.6 1.5-8.8 4.1-19 7.8-30.2 1.4-4.2-0.9-8.7-5.1-10.1 -4.2-1.4-8.7 0.9-10.1 5.1 -3.9 11.9-6.6 22.7-8.3 32.2 -1 4.1-1.5 8.3-1.6 12.5 -0.1 1.2 0 2.5 0.1 3.7 2 30.4 30.2 58.3 79.6 78.6 47.5 19.5 110.1 30.3 176.3 30.3 66.4 0 129.1-10.8 176.7-30.4 49.5-20.4 77.6-48.5 79.2-79.1 0.1-0.7 0.1-1.3 0.1-2 0-0.2 0-0.5 0-0.7C512 338.4 511.4 334 510.3 329.6z"/></svg>
